<svg xmlns="http://www.w3.org/2000/svg" viewBox="0 0 1200 760" role="img" aria-labelledby="title desc">
  <title id="title">Garden explorers</title><desc id="desc">A warm illustrated child care garden exploration scene.</desc>
  <defs><linearGradient id="sky" x1="0" y1="0" x2="0" y2="1"><stop stop-color="#dceeff"/><stop offset="1" stop-color="#fff5dc"/></linearGradient><linearGradient id="grass" x1="0" y1="0" x2="1" y2="1"><stop stop-color="#a8dec4"/><stop offset="1" stop-color="#6fbd9e"/></linearGradient><filter id="soft"><feDropShadow dx="0" dy="14" stdDeviation="18" flood-color="#37675b" flood-opacity=".18"/></filter></defs>
  <rect width="1200" height="760" fill="url(#sky)"/><circle cx="1015" cy="126" r="58" fill="#f8d57d" opacity=".95"/><g fill="#fff" opacity=".8"><path d="M80 146c9-35 69-47 92-11 32-20 78 3 77 36H66c0-11 5-19 14-25z"/><path d="M782 93c7-27 53-36 71-8 25-15 60 3 59 28H771c0-8 4-15 11-20z"/></g>
  <path d="M0 476c167-61 310-33 453 14 156 51 312 28 439-4 126-31 225-19 308 17v257H0z" fill="url(#grass)"/><path d="M0 569c176-47 309-14 447 31 154 50 277 29 407 3 144-29 261-11 346 26v131H0z" fill="#83caaa" opacity=".85"/>
  <g filter="url(#soft)"><path d="M515 506c-36-97-30-161 14-190 58-38 143 6 151 88 5 48-19 90-59 120z" fill="#f7c4cf"/><circle cx="590" cy="301" r="61" fill="#9c6248"/><path d="M533 287c5-64 105-80 124-4-31-19-74-20-124 4z" fill="#3f302d"/><circle cx="569" cy="306" r="5" fill="#342a28"/><circle cx="612" cy="306" r="5" fill="#342a28"/><path d="M576 330c12 9 23 9 34 0" fill="none" stroke="#8c4e4d" stroke-width="5" stroke-linecap="round"/><path d="M538 385c43 28 89 27 133-2l-9 127-139-2z" fill="#f5b6c7"/><path d="M552 418c-52 15-80 45-95 91" fill="none" stroke="#9c6248" stroke-width="22" stroke-linecap="round"/><path d="M644 416c51 12 87 41 104 82" fill="none" stroke="#9c6248" stroke-width="22" stroke-linecap="round"/></g>
  <g filter="url(#soft)"><path d="M246 549c-22-77-13-132 30-158 55-33 124 8 127 77 2 42-20 77-60 99z" fill="#f4d991"/><circle cx="327" cy="377" r="54" fill="#7d4c36"/><path d="M274 372c-2-58 80-85 105-19-36-16-70-10-105 19z" fill="#282525"/><circle cx="310" cy="386" r="5"/><circle cx="347" cy="383" r="5"/><path d="M316 405c10 8 20 8 29-1" fill="none" stroke="#8c4e4d" stroke-width="5" stroke-linecap="round"/><path d="M276 450c31 23 68 25 107 1l6 103-125 5z" fill="#efd47f"/><path d="M371 475c45 5 72 18 92 38" fill="none" stroke="#7d4c36" stroke-width="18" stroke-linecap="round"/></g>
  <g filter="url(#soft)"><path d="M771 553c-29-83-18-143 31-170 60-33 135 14 135 89 0 42-23 77-61 98z" fill="#a9d9d1"/><circle cx="850" cy="371" r="57" fill="#d8a47e"/><path d="M796 365c2-55 74-83 107-28-24-4-58 6-107 28z" fill="#6e462e"/><circle cx="830" cy="379" r="5"/><circle cx="868" cy="378" r="5"/><path d="M836 401c11 8 21 8 30 0" fill="none" stroke="#a95d5d" stroke-width="5" stroke-linecap="round"/><path d="M803 444c38 27 78 27 119 0l2 113-133-3z" fill="#96d3c7"/><path d="M806 483c-47 9-74 25-91 48" fill="none" stroke="#d8a47e" stroke-width="19" stroke-linecap="round"/></g>
  <g><path d="M693 554c12-74 17-133 15-177" fill="none" stroke="#397f61" stroke-width="10"/><ellipse cx="678" cy="430" rx="29" ry="14" fill="#5fae83" transform="rotate(31 678 430)"/><ellipse cx="731" cy="469" rx="30" ry="14" fill="#5fae83" transform="rotate(-34 731 469)"/><circle cx="707" cy="360" r="25" fill="#f3d46f"/><circle cx="684" cy="355" r="20" fill="#f8aebc"/><circle cx="727" cy="350" r="20" fill="#f8aebc"/><circle cx="708" cy="337" r="20" fill="#f7bdc8"/><circle cx="707" cy="360" r="11" fill="#7d5b3d"/></g>
  <g fill="#fff3cf"><circle cx="152" cy="581" r="12"/><circle cx="188" cy="613" r="9"/><circle cx="1020" cy="578" r="11"/><circle cx="1080" cy="619" r="8"/></g><g transform="translate(706 347)"><ellipse cx="0" cy="0" rx="15" ry="11" fill="#e85954"/><circle cx="-9" cy="0" r="3" fill="#242a2e"/><circle cx="3" cy="-4" r="2.5" fill="#242a2e"/><circle cx="5" cy="5" r="2.5" fill="#242a2e"/><path d="M0-11v22" stroke="#242a2e" stroke-width="2"/></g>
  <path d="M25 727c98-26 181-22 282 5M922 724c88-21 173-16 250 3" fill="none" stroke="#56987a" stroke-width="4" stroke-linecap="round" opacity=".6"/>
</svg>
